<mxfile host="app.diagrams.net" agent="Mozilla/5.0 (Windows NT 10.0; Win64; x64) AppleWebKit/537.36 (KHTML, like Gecko) Chrome/129.0.0.0 Safari/537.36" version="24.8.0">
  <diagram name="PÃ¡gina-1" id="2vEROtWeL3E6L5FnlG_2">
    <mxGraphModel dx="1335" dy="671" grid="1" gridSize="10" guides="1" tooltips="1" connect="1" arrows="1" fold="1" page="1" pageScale="1" pageWidth="827" pageHeight="1169" math="0" shadow="0">
      <root>
        <mxCell id="0" />
        <mxCell id="1" parent="0" />
        <mxCell id="C7vFVgOP1VJ4IKRthdF2-1" value="AWS Cloud" style="points=[[0,0],[0.25,0],[0.5,0],[0.75,0],[1,0],[1,0.25],[1,0.5],[1,0.75],[1,1],[0.75,1],[0.5,1],[0.25,1],[0,1],[0,0.75],[0,0.5],[0,0.25]];outlineConnect=0;gradientColor=none;html=1;whiteSpace=wrap;fontSize=12;fontStyle=0;container=1;pointerEvents=0;collapsible=0;recursiveResize=0;shape=mxgraph.aws4.group;grIcon=mxgraph.aws4.group_aws_cloud_alt;strokeColor=#232F3E;fillColor=none;verticalAlign=top;align=left;spacingLeft=30;fontColor=#232F3E;dashed=0;" parent="1" vertex="1">
          <mxGeometry y="20" width="830" height="1000" as="geometry" />
        </mxCell>
        <mxCell id="C7vFVgOP1VJ4IKRthdF2-19" style="edgeStyle=orthogonalEdgeStyle;rounded=0;orthogonalLoop=1;jettySize=auto;html=1;" parent="C7vFVgOP1VJ4IKRthdF2-1" edge="1">
          <mxGeometry relative="1" as="geometry">
            <mxPoint x="52.5" y="331.5" as="sourcePoint" />
            <mxPoint x="52.5" y="470" as="targetPoint" />
          </mxGeometry>
        </mxCell>
        <mxCell id="C7vFVgOP1VJ4IKRthdF2-66" value="" style="edgeStyle=orthogonalEdgeStyle;rounded=0;orthogonalLoop=1;jettySize=auto;html=1;" parent="C7vFVgOP1VJ4IKRthdF2-1" source="C7vFVgOP1VJ4IKRthdF2-2" target="C7vFVgOP1VJ4IKRthdF2-55" edge="1">
          <mxGeometry relative="1" as="geometry" />
        </mxCell>
        <mxCell id="C7vFVgOP1VJ4IKRthdF2-2" value="" style="outlineConnect=0;dashed=0;verticalLabelPosition=bottom;verticalAlign=top;align=center;html=1;shape=mxgraph.aws3.cloudfront;fillColor=#F58536;gradientColor=none;" parent="C7vFVgOP1VJ4IKRthdF2-1" vertex="1">
          <mxGeometry x="22.5" y="278.5" width="60" height="53" as="geometry" />
        </mxCell>
        <mxCell id="C7vFVgOP1VJ4IKRthdF2-3" value="&lt;div&gt;Amazon Coud Front&lt;/div&gt;" style="text;html=1;align=center;verticalAlign=middle;whiteSpace=wrap;rounded=0;" parent="C7vFVgOP1VJ4IKRthdF2-1" vertex="1">
          <mxGeometry y="243.5" width="140" height="30" as="geometry" />
        </mxCell>
        <mxCell id="C7vFVgOP1VJ4IKRthdF2-5" value="" style="sketch=0;outlineConnect=0;fontColor=#232F3E;gradientColor=none;fillColor=#7AA116;strokeColor=none;dashed=0;verticalLabelPosition=bottom;verticalAlign=top;align=center;html=1;fontSize=12;fontStyle=0;aspect=fixed;pointerEvents=1;shape=mxgraph.aws4.bucket;" parent="C7vFVgOP1VJ4IKRthdF2-1" vertex="1">
          <mxGeometry x="15" y="470" width="75" height="78" as="geometry" />
        </mxCell>
        <mxCell id="C7vFVgOP1VJ4IKRthdF2-6" value="Amazon S3" style="text;html=1;align=center;verticalAlign=middle;whiteSpace=wrap;rounded=0;" parent="C7vFVgOP1VJ4IKRthdF2-1" vertex="1">
          <mxGeometry x="15" y="560" width="90" height="30" as="geometry" />
        </mxCell>
        <mxCell id="C7vFVgOP1VJ4IKRthdF2-20" value="VPC" style="points=[[0,0],[0.25,0],[0.5,0],[0.75,0],[1,0],[1,0.25],[1,0.5],[1,0.75],[1,1],[0.75,1],[0.5,1],[0.25,1],[0,1],[0,0.75],[0,0.5],[0,0.25]];outlineConnect=0;gradientColor=none;html=1;whiteSpace=wrap;fontSize=12;fontStyle=0;container=1;pointerEvents=0;collapsible=0;recursiveResize=0;shape=mxgraph.aws4.group;grIcon=mxgraph.aws4.group_vpc2;strokeColor=#8C4FFF;fillColor=none;verticalAlign=top;align=left;spacingLeft=30;fontColor=#AAB7B8;dashed=0;" parent="C7vFVgOP1VJ4IKRthdF2-1" vertex="1">
          <mxGeometry x="150" y="40" width="660" height="930" as="geometry" />
        </mxCell>
        <mxCell id="C7vFVgOP1VJ4IKRthdF2-21" value="Public subnet" style="points=[[0,0],[0.25,0],[0.5,0],[0.75,0],[1,0],[1,0.25],[1,0.5],[1,0.75],[1,1],[0.75,1],[0.5,1],[0.25,1],[0,1],[0,0.75],[0,0.5],[0,0.25]];outlineConnect=0;gradientColor=none;html=1;whiteSpace=wrap;fontSize=12;fontStyle=0;container=1;pointerEvents=0;collapsible=0;recursiveResize=0;shape=mxgraph.aws4.group;grIcon=mxgraph.aws4.group_security_group;grStroke=0;strokeColor=#7AA116;fillColor=#F2F6E8;verticalAlign=top;align=left;spacingLeft=30;fontColor=#248814;dashed=0;" parent="C7vFVgOP1VJ4IKRthdF2-20" vertex="1">
          <mxGeometry x="350" y="120" width="280" height="180" as="geometry" />
        </mxCell>
        <mxCell id="C7vFVgOP1VJ4IKRthdF2-24" value="Availability Zone&amp;nbsp;" style="fillColor=none;strokeColor=#147EBA;dashed=1;verticalAlign=top;fontStyle=0;fontColor=#147EBA;whiteSpace=wrap;html=1;" parent="C7vFVgOP1VJ4IKRthdF2-21" vertex="1">
          <mxGeometry x="10" y="60" width="60" height="100" as="geometry" />
        </mxCell>
        <mxCell id="C7vFVgOP1VJ4IKRthdF2-25" value="Availability Zone" style="fillColor=none;strokeColor=#147EBA;dashed=1;verticalAlign=top;fontStyle=0;fontColor=#147EBA;whiteSpace=wrap;html=1;" parent="C7vFVgOP1VJ4IKRthdF2-21" vertex="1">
          <mxGeometry x="110" y="58.75" width="60" height="105" as="geometry" />
        </mxCell>
        <mxCell id="C7vFVgOP1VJ4IKRthdF2-26" value="Availability Zone" style="fillColor=none;strokeColor=#147EBA;dashed=1;verticalAlign=top;fontStyle=0;fontColor=#147EBA;whiteSpace=wrap;html=1;" parent="C7vFVgOP1VJ4IKRthdF2-21" vertex="1">
          <mxGeometry x="200" y="60" width="60" height="102.5" as="geometry" />
        </mxCell>
        <mxCell id="C7vFVgOP1VJ4IKRthdF2-30" value="A" style="text;html=1;align=center;verticalAlign=middle;whiteSpace=wrap;rounded=0;" parent="C7vFVgOP1VJ4IKRthdF2-21" vertex="1">
          <mxGeometry x="10" y="100" width="60" height="30" as="geometry" />
        </mxCell>
        <mxCell id="C7vFVgOP1VJ4IKRthdF2-32" value="B" style="text;html=1;align=center;verticalAlign=middle;whiteSpace=wrap;rounded=0;" parent="C7vFVgOP1VJ4IKRthdF2-21" vertex="1">
          <mxGeometry x="110" y="100" width="60" height="30" as="geometry" />
        </mxCell>
        <mxCell id="C7vFVgOP1VJ4IKRthdF2-33" value="C" style="text;html=1;align=center;verticalAlign=middle;whiteSpace=wrap;rounded=0;" parent="C7vFVgOP1VJ4IKRthdF2-21" vertex="1">
          <mxGeometry x="200" y="100" width="60" height="30" as="geometry" />
        </mxCell>
        <mxCell id="C7vFVgOP1VJ4IKRthdF2-22" value="Private subnet" style="points=[[0,0],[0.25,0],[0.5,0],[0.75,0],[1,0],[1,0.25],[1,0.5],[1,0.75],[1,1],[0.75,1],[0.5,1],[0.25,1],[0,1],[0,0.75],[0,0.5],[0,0.25]];outlineConnect=0;gradientColor=none;html=1;whiteSpace=wrap;fontSize=12;fontStyle=0;container=1;pointerEvents=0;collapsible=0;recursiveResize=0;shape=mxgraph.aws4.group;grIcon=mxgraph.aws4.group_security_group;grStroke=0;strokeColor=#00A4A6;fillColor=#E6F6F7;verticalAlign=top;align=left;spacingLeft=30;fontColor=#147EBA;dashed=0;" parent="C7vFVgOP1VJ4IKRthdF2-20" vertex="1">
          <mxGeometry x="370" y="480" width="270" height="160" as="geometry" />
        </mxCell>
        <mxCell id="C7vFVgOP1VJ4IKRthdF2-27" value="Availability Zone&amp;nbsp;" style="fillColor=none;strokeColor=#147EBA;dashed=1;verticalAlign=top;fontStyle=0;fontColor=#147EBA;whiteSpace=wrap;html=1;" parent="C7vFVgOP1VJ4IKRthdF2-22" vertex="1">
          <mxGeometry x="15" y="50" width="60" height="100" as="geometry" />
        </mxCell>
        <mxCell id="C7vFVgOP1VJ4IKRthdF2-28" value="Availability Zone&amp;nbsp;" style="fillColor=none;strokeColor=#147EBA;dashed=1;verticalAlign=top;fontStyle=0;fontColor=#147EBA;whiteSpace=wrap;html=1;" parent="C7vFVgOP1VJ4IKRthdF2-22" vertex="1">
          <mxGeometry x="105" y="50" width="60" height="100" as="geometry" />
        </mxCell>
        <mxCell id="C7vFVgOP1VJ4IKRthdF2-29" value="Availability Zone&amp;nbsp;" style="fillColor=none;strokeColor=#147EBA;dashed=1;verticalAlign=top;fontStyle=0;fontColor=#147EBA;whiteSpace=wrap;html=1;" parent="C7vFVgOP1VJ4IKRthdF2-22" vertex="1">
          <mxGeometry x="185" y="50" width="60" height="100" as="geometry" />
        </mxCell>
        <mxCell id="C7vFVgOP1VJ4IKRthdF2-34" value="A" style="text;html=1;align=center;verticalAlign=middle;whiteSpace=wrap;rounded=0;" parent="C7vFVgOP1VJ4IKRthdF2-22" vertex="1">
          <mxGeometry x="15" y="100" width="60" height="30" as="geometry" />
        </mxCell>
        <mxCell id="C7vFVgOP1VJ4IKRthdF2-35" value="B" style="text;html=1;align=center;verticalAlign=middle;whiteSpace=wrap;rounded=0;" parent="C7vFVgOP1VJ4IKRthdF2-22" vertex="1">
          <mxGeometry x="105" y="100" width="60" height="30" as="geometry" />
        </mxCell>
        <mxCell id="C7vFVgOP1VJ4IKRthdF2-36" value="C" style="text;html=1;align=center;verticalAlign=middle;whiteSpace=wrap;rounded=0;" parent="C7vFVgOP1VJ4IKRthdF2-22" vertex="1">
          <mxGeometry x="185" y="100" width="60" height="30" as="geometry" />
        </mxCell>
        <mxCell id="3E0-Uk7Y67lXFbsYBErR-1" value="" style="edgeStyle=orthogonalEdgeStyle;rounded=0;orthogonalLoop=1;jettySize=auto;html=1;" edge="1" parent="C7vFVgOP1VJ4IKRthdF2-20" source="C7vFVgOP1VJ4IKRthdF2-40" target="C7vFVgOP1VJ4IKRthdF2-21">
          <mxGeometry relative="1" as="geometry" />
        </mxCell>
        <mxCell id="C7vFVgOP1VJ4IKRthdF2-40" value="NAT gateway" style="sketch=0;outlineConnect=0;fontColor=#232F3E;gradientColor=none;strokeColor=#232F3E;fillColor=#ffffff;dashed=0;verticalLabelPosition=bottom;verticalAlign=top;align=center;html=1;fontSize=12;fontStyle=0;aspect=fixed;shape=mxgraph.aws4.resourceIcon;resIcon=mxgraph.aws4.nat_gateway;" parent="C7vFVgOP1VJ4IKRthdF2-20" vertex="1">
          <mxGeometry x="460" width="60" height="60" as="geometry" />
        </mxCell>
        <mxCell id="C7vFVgOP1VJ4IKRthdF2-72" style="edgeStyle=orthogonalEdgeStyle;rounded=0;orthogonalLoop=1;jettySize=auto;html=1;" parent="C7vFVgOP1VJ4IKRthdF2-20" source="C7vFVgOP1VJ4IKRthdF2-45" target="C7vFVgOP1VJ4IKRthdF2-21" edge="1">
          <mxGeometry relative="1" as="geometry" />
        </mxCell>
        <mxCell id="C7vFVgOP1VJ4IKRthdF2-45" value="Application Load Balancer" style="sketch=0;outlineConnect=0;fontColor=#232F3E;gradientColor=none;strokeColor=#ffffff;fillColor=#232F3E;dashed=0;verticalLabelPosition=middle;verticalAlign=bottom;align=center;html=1;whiteSpace=wrap;fontSize=10;fontStyle=1;spacing=3;shape=mxgraph.aws4.productIcon;prIcon=mxgraph.aws4.application_load_balancer;" parent="C7vFVgOP1VJ4IKRthdF2-20" vertex="1">
          <mxGeometry x="30" y="75" width="80" height="110" as="geometry" />
        </mxCell>
        <mxCell id="C7vFVgOP1VJ4IKRthdF2-71" style="edgeStyle=orthogonalEdgeStyle;rounded=0;orthogonalLoop=1;jettySize=auto;html=1;" parent="C7vFVgOP1VJ4IKRthdF2-20" source="C7vFVgOP1VJ4IKRthdF2-50" target="C7vFVgOP1VJ4IKRthdF2-22" edge="1">
          <mxGeometry relative="1" as="geometry" />
        </mxCell>
        <mxCell id="C7vFVgOP1VJ4IKRthdF2-50" value="Amazon ECS" style="sketch=0;outlineConnect=0;fontColor=#232F3E;gradientColor=none;strokeColor=#ffffff;fillColor=#232F3E;dashed=0;verticalLabelPosition=middle;verticalAlign=bottom;align=center;html=1;whiteSpace=wrap;fontSize=10;fontStyle=1;spacing=3;shape=mxgraph.aws4.productIcon;prIcon=mxgraph.aws4.ecs;" parent="C7vFVgOP1VJ4IKRthdF2-20" vertex="1">
          <mxGeometry x="170" y="510" width="80" height="100" as="geometry" />
        </mxCell>
        <mxCell id="C7vFVgOP1VJ4IKRthdF2-56" value="" style="edgeStyle=orthogonalEdgeStyle;rounded=0;orthogonalLoop=1;jettySize=auto;html=1;" parent="C7vFVgOP1VJ4IKRthdF2-20" source="C7vFVgOP1VJ4IKRthdF2-55" target="C7vFVgOP1VJ4IKRthdF2-45" edge="1">
          <mxGeometry relative="1" as="geometry" />
        </mxCell>
        <mxCell id="C7vFVgOP1VJ4IKRthdF2-55" value="Amazon Route 53" style="sketch=0;outlineConnect=0;fontColor=#232F3E;gradientColor=none;strokeColor=#ffffff;fillColor=#232F3E;dashed=0;verticalLabelPosition=middle;verticalAlign=bottom;align=center;html=1;whiteSpace=wrap;fontSize=10;fontStyle=1;spacing=3;shape=mxgraph.aws4.productIcon;prIcon=mxgraph.aws4.route_53;" parent="C7vFVgOP1VJ4IKRthdF2-20" vertex="1">
          <mxGeometry x="40" y="291.5" width="60" height="90" as="geometry" />
        </mxCell>
        <mxCell id="C7vFVgOP1VJ4IKRthdF2-59" value="&lt;div&gt;&lt;span style=&quot;background-color: initial;&quot;&gt;backend&lt;/span&gt;&lt;br&gt;&lt;/div&gt;" style="text;html=1;align=center;verticalAlign=middle;whiteSpace=wrap;rounded=0;" parent="C7vFVgOP1VJ4IKRthdF2-20" vertex="1">
          <mxGeometry x="10" y="430" width="60" height="30" as="geometry" />
        </mxCell>
        <mxCell id="C7vFVgOP1VJ4IKRthdF2-61" value="" style="edgeStyle=orthogonalEdgeStyle;rounded=0;orthogonalLoop=1;jettySize=auto;html=1;" parent="C7vFVgOP1VJ4IKRthdF2-20" source="C7vFVgOP1VJ4IKRthdF2-60" target="C7vFVgOP1VJ4IKRthdF2-22" edge="1">
          <mxGeometry relative="1" as="geometry" />
        </mxCell>
        <mxCell id="C7vFVgOP1VJ4IKRthdF2-62" style="edgeStyle=orthogonalEdgeStyle;rounded=0;orthogonalLoop=1;jettySize=auto;html=1;" parent="C7vFVgOP1VJ4IKRthdF2-20" source="C7vFVgOP1VJ4IKRthdF2-60" target="C7vFVgOP1VJ4IKRthdF2-50" edge="1">
          <mxGeometry relative="1" as="geometry">
            <Array as="points">
              <mxPoint x="505" y="420" />
              <mxPoint x="80" y="420" />
            </Array>
          </mxGeometry>
        </mxCell>
        <mxCell id="C7vFVgOP1VJ4IKRthdF2-60" value="Amazon RDS" style="sketch=0;outlineConnect=0;fontColor=#232F3E;gradientColor=none;strokeColor=#ffffff;fillColor=#232F3E;dashed=0;verticalLabelPosition=middle;verticalAlign=bottom;align=center;html=1;whiteSpace=wrap;fontSize=10;fontStyle=1;spacing=3;shape=mxgraph.aws4.productIcon;prIcon=mxgraph.aws4.rds;" parent="C7vFVgOP1VJ4IKRthdF2-20" vertex="1">
          <mxGeometry x="470" y="360" width="70" height="90" as="geometry" />
        </mxCell>
        <mxCell id="C7vFVgOP1VJ4IKRthdF2-58" value="Frontend" style="text;html=1;align=center;verticalAlign=middle;whiteSpace=wrap;rounded=0;" parent="C7vFVgOP1VJ4IKRthdF2-20" vertex="1">
          <mxGeometry x="50" y="30" width="60" height="30" as="geometry" />
        </mxCell>
      </root>
    </mxGraphModel>
  </diagram>
</mxfile>
